<?xml version="1.0" standalone="no"?>
<!DOCTYPE svg PUBLIC "-//W3C//DTD SVG 1.1//EN" "http://www.w3.org/Graphics/SVG/1.1/DTD/svg11.dtd">

<svg width="566.0" height="496.0" viewBox="0 0 566.0 496.0" version="1.1" xmlns="http://www.w3.org/2000/svg" xmlns:xlink="http://www.w3.org/1999/xlink">
<!-- automatically generated by aafigure --><line x1="10.0" y1="80.0" x2="206.0" y2="80.0" stroke="#000000" stroke-width="2.0" />
<line x1="10.0" y1="80.0" x2="10.0" y2="108.0" stroke="#000000" stroke-width="2.0" />
<line x1="206.0" y1="80.0" x2="206.0" y2="108.0" stroke="#000000" stroke-width="2.0" />
<line x1="10.0" y1="108.0" x2="80.0" y2="108.0" stroke="#000000" stroke-width="2.0" />
<line x1="80.0" y1="108.0" x2="206.0" y2="108.0" stroke="#000000" stroke-width="2.0" />
<line x1="80.0" y1="108.0" x2="80.0" y2="150.0" stroke="#000000" stroke-width="2.0" />
<line x1="24.0" y1="150.0" x2="80.0" y2="150.0" stroke="#000000" stroke-width="2.0" />
<line x1="80.0" y1="150.0" x2="178.0" y2="150.0" stroke="#000000" stroke-width="2.0" />
<line x1="24.0" y1="150.0" x2="24.0" y2="178.0" stroke="#000000" stroke-width="2.0" />
<line x1="178.0" y1="150.0" x2="178.0" y2="178.0" stroke="#000000" stroke-width="2.0" />
<line x1="24.0" y1="178.0" x2="178.0" y2="178.0" stroke="#000000" stroke-width="2.0" />
<line x1="52.0" y1="185.0" x2="52.0" y2="234.0" stroke="#000000" stroke-width="2.0" />
<line x1="94.0" y1="185.0" x2="94.0" y2="234.0" stroke="#000000" stroke-width="2.0" />
<line x1="136.0" y1="185.0" x2="136.0" y2="234.0" stroke="#000000" stroke-width="2.0" />
<line x1="24.0" y1="234.0" x2="52.0" y2="234.0" stroke="#000000" stroke-width="2.0" />
<line x1="80.0" y1="234.0" x2="94.0" y2="234.0" stroke="#000000" stroke-width="2.0" />
<line x1="94.0" y1="234.0" x2="108.0" y2="234.0" stroke="#000000" stroke-width="2.0" />
<line x1="136.0" y1="234.0" x2="164.0" y2="234.0" stroke="#000000" stroke-width="2.0" />
<line x1="24.0" y1="234.0" x2="24.0" y2="262.0" stroke="#000000" stroke-width="2.0" />
<line x1="52.0" y1="234.0" x2="52.0" y2="262.0" stroke="#000000" stroke-width="2.0" />
<line x1="80.0" y1="234.0" x2="80.0" y2="262.0" stroke="#000000" stroke-width="2.0" />
<line x1="108.0" y1="234.0" x2="108.0" y2="262.0" stroke="#000000" stroke-width="2.0" />
<line x1="136.0" y1="234.0" x2="136.0" y2="262.0" stroke="#000000" stroke-width="2.0" />
<line x1="164.0" y1="234.0" x2="164.0" y2="262.0" stroke="#000000" stroke-width="2.0" />
<line x1="24.0" y1="262.0" x2="52.0" y2="262.0" stroke="#000000" stroke-width="2.0" />
<line x1="80.0" y1="262.0" x2="108.0" y2="262.0" stroke="#000000" stroke-width="2.0" />
<line x1="136.0" y1="262.0" x2="164.0" y2="262.0" stroke="#000000" stroke-width="2.0" />
<line x1="24.0" y1="262.0" x2="24.0" y2="283.0" stroke="#000000" stroke-width="2.0" />
<line x1="80.0" y1="262.0" x2="80.0" y2="283.0" stroke="#000000" stroke-width="2.0" />
<line x1="136.0" y1="262.0" x2="136.0" y2="283.0" stroke="#000000" stroke-width="2.0" />
<line x1="185.0" y1="290.0" x2="199.0" y2="290.0" stroke="#000000" stroke-width="4.0" />
<line x1="24.0" y1="297.0" x2="24.0" y2="311.0" stroke="#000000" stroke-width="2.0" />
<line x1="80.0" y1="297.0" x2="80.0" y2="311.0" stroke="#000000" stroke-width="2.0" />
<line x1="136.0" y1="297.0" x2="136.0" y2="311.0" stroke="#000000" stroke-width="2.0" />
<line x1="185.0" y1="318.0" x2="199.0" y2="318.0" stroke="#000000" stroke-width="4.0" />
<line x1="311.0" y1="318.0" x2="325.0" y2="318.0" stroke="#000000" stroke-width="2.0" />
<g>
    <line x1="452.166666667" y1="311.0" x2="452.166666667" y2="325.0" stroke="#000000" stroke-width="2.0" />
    <line x1="456.833333333" y1="311.0" x2="456.833333333" y2="325.0" stroke="#000000" stroke-width="2.0" />
    <line x1="461.5" y1="311.0" x2="461.5" y2="325.0" stroke="#000000" stroke-width="2.0" />
    <line x1="451.0" y1="312.166666667" x2="465.0" y2="312.166666667" stroke="#000000" stroke-width="2.0" />
    <line x1="451.0" y1="316.833333333" x2="465.0" y2="316.833333333" stroke="#000000" stroke-width="2.0" />
    <line x1="451.0" y1="321.5" x2="465.0" y2="321.5" stroke="#000000" stroke-width="2.0" />
    <line x1="466.166666667" y1="311.0" x2="466.166666667" y2="325.0" stroke="#000000" stroke-width="2.0" />
    <line x1="470.833333333" y1="311.0" x2="470.833333333" y2="325.0" stroke="#000000" stroke-width="2.0" />
    <line x1="475.5" y1="311.0" x2="475.5" y2="325.0" stroke="#000000" stroke-width="2.0" />
    <line x1="465.0" y1="312.166666667" x2="479.0" y2="312.166666667" stroke="#000000" stroke-width="2.0" />
    <line x1="465.0" y1="316.833333333" x2="479.0" y2="316.833333333" stroke="#000000" stroke-width="2.0" />
    <line x1="465.0" y1="321.5" x2="479.0" y2="321.5" stroke="#000000" stroke-width="2.0" />
</g>
<line x1="24.0" y1="325.0" x2="24.0" y2="339.0" stroke="#000000" stroke-width="2.0" />
<line x1="80.0" y1="325.0" x2="80.0" y2="339.0" stroke="#000000" stroke-width="2.0" />
<line x1="136.0" y1="325.0" x2="136.0" y2="339.0" stroke="#000000" stroke-width="2.0" />
<line x1="185.0" y1="346.0" x2="199.0" y2="346.0" stroke="#000000" stroke-width="4.0" />
<line x1="297.0" y1="346.0" x2="311.0" y2="346.0" stroke="#000000" stroke-width="2.0" />
<line x1="24.0" y1="353.0" x2="24.0" y2="367.0" stroke="#000000" stroke-width="2.0" />
<line x1="80.0" y1="353.0" x2="80.0" y2="367.0" stroke="#000000" stroke-width="2.0" />
<line x1="136.0" y1="353.0" x2="136.0" y2="367.0" stroke="#000000" stroke-width="2.0" />
<line x1="185.0" y1="374.0" x2="199.0" y2="374.0" stroke="#000000" stroke-width="4.0" />
<line x1="255.0" y1="416.0" x2="269.0" y2="416.0" stroke="#000000" stroke-width="2.0" />
<g>
    <line x1="283.0" y1="409.0" x2="283.0" y2="409.0" stroke="#000000" stroke-width="2.0" />
    <line x1="283.0" y1="423.0" x2="297.0" y2="409.0" stroke="#000000" stroke-width="2.0" />
    <line x1="283.0" y1="416.0" x2="290.0" y2="409.0" stroke="#000000" stroke-width="2.0" />
    <line x1="290.0" y1="423.0" x2="297.0" y2="416.0" stroke="#000000" stroke-width="2.0" />
    <line x1="283.0" y1="423.0" x2="283.0" y2="423.0" stroke="#000000" stroke-width="2.0" />
    <line x1="283.0" y1="437.0" x2="297.0" y2="423.0" stroke="#000000" stroke-width="2.0" />
    <line x1="283.0" y1="430.0" x2="290.0" y2="423.0" stroke="#000000" stroke-width="2.0" />
    <line x1="290.0" y1="437.0" x2="297.0" y2="430.0" stroke="#000000" stroke-width="2.0" />
</g>
<line x1="409.0" y1="486.0" x2="437.0" y2="486.0" stroke="#000000" stroke-width="4.0" />
<g>
    <line x1="479.0" y1="479.0" x2="493.0" y2="493.0" stroke="#000000" stroke-width="2.0" />
    <line x1="493.0" y1="479.0" x2="493.0" y2="479.0" stroke="#000000" stroke-width="2.0" />
    <line x1="479.0" y1="479.0" x2="479.0" y2="479.0" stroke="#000000" stroke-width="2.0" />
    <line x1="479.0" y1="493.0" x2="493.0" y2="479.0" stroke="#000000" stroke-width="2.0" />
    <line x1="493.0" y1="479.0" x2="507.0" y2="493.0" stroke="#000000" stroke-width="2.0" />
    <line x1="507.0" y1="479.0" x2="507.0" y2="479.0" stroke="#000000" stroke-width="2.0" />
    <line x1="493.0" y1="479.0" x2="493.0" y2="479.0" stroke="#000000" stroke-width="2.0" />
    <line x1="493.0" y1="493.0" x2="507.0" y2="479.0" stroke="#000000" stroke-width="2.0" />
</g>
<g>
    <text x="521.0" y="490.9" font-family="monospace" font-size="14.0" fill="#000000" >
  ?
    </text>
    <text x="535.0" y="490.9" font-family="monospace" font-size="14.0" fill="#000000" >
  ?
    </text>
</g>
<text x="17.0" y="14.9" font-family="monospace" font-size="14.0" fill="#000000" >
  :aspect: 60
</text>
<text x="17.0" y="28.9" font-family="monospace" font-size="14.0" fill="#000000" >
  :scale: 150
</text>
<text x="17.0" y="42.9" font-family="monospace" font-size="14.0" fill="#000000" >
  :proportional:
</text>
<text x="17.0" y="56.9" font-family="monospace" font-size="14.0" fill="#000000" >
  :textual:
</text>
<text x="17.0" y="98.9" font-family="monospace" font-size="14.0" fill="#000000" >
  Preinfosource
</text>
<text x="31.0" y="168.9" font-family="monospace" font-size="14.0" fill="#000000" >
  Infosource
</text>
<text x="31.0" y="252.9" font-family="monospace" font-size="14.0" fill="#000000" >
  D
</text>
<text x="87.0" y="252.9" font-family="monospace" font-size="14.0" fill="#000000" >
  D
</text>
<text x="143.0" y="252.9" font-family="monospace" font-size="14.0" fill="#000000" >
  D
</text>
<text x="17.0" y="294.9" font-family="monospace" font-size="14.0" fill="#000000" >
  C
</text>
<text x="73.0" y="294.9" font-family="monospace" font-size="14.0" fill="#000000" >
  C
</text>
<text x="129.0" y="294.9" font-family="monospace" font-size="14.0" fill="#000000" >
  C
</text>
<text x="213.0" y="294.9" font-family="monospace" font-size="14.0" fill="#000000" >
  Coregistration
</text>
<text x="17.0" y="322.9" font-family="monospace" font-size="14.0" fill="#000000" >
  P
</text>
<text x="73.0" y="322.9" font-family="monospace" font-size="14.0" fill="#000000" >
  P
</text>
<text x="129.0" y="322.9" font-family="monospace" font-size="14.0" fill="#000000" >
  P
</text>
<text x="213.0" y="322.9" font-family="monospace" font-size="14.0" fill="#000000" >
  Partial
</text>
<text x="325.0" y="322.9" font-family="monospace" font-size="14.0" fill="#000000" >
  volume Co
</text>
<text x="479.0" y="322.9" font-family="monospace" font-size="14.0" fill="#000000" >
  ection
</text>
<text x="17.0" y="350.9" font-family="monospace" font-size="14.0" fill="#000000" >
  T
</text>
<text x="73.0" y="350.9" font-family="monospace" font-size="14.0" fill="#000000" >
  T
</text>
<text x="129.0" y="350.9" font-family="monospace" font-size="14.0" fill="#000000" >
  T
</text>
<text x="213.0" y="350.9" font-family="monospace" font-size="14.0" fill="#000000" >
  Tracer
</text>
<text x="311.0" y="350.9" font-family="monospace" font-size="14.0" fill="#000000" >
  kinetic analysis
</text>
<text x="17.0" y="378.9" font-family="monospace" font-size="14.0" fill="#000000" >
  R
</text>
<text x="73.0" y="378.9" font-family="monospace" font-size="14.0" fill="#000000" >
  R
</text>
<text x="129.0" y="378.9" font-family="monospace" font-size="14.0" fill="#000000" >
  R
</text>
<text x="213.0" y="378.9" font-family="monospace" font-size="14.0" fill="#000000" >
  Results report
</text>
<text x="17.0" y="420.9" font-family="monospace" font-size="14.0" fill="#000000" >
  :param opts: User
</text>
<text x="269.0" y="420.9" font-family="monospace" font-size="14.0" fill="#000000" >
  d
</text>
<text x="297.0" y="420.9" font-family="monospace" font-size="14.0" fill="#000000" >
  fined options
</text>
<text x="17.0" y="434.9" font-family="monospace" font-size="14.0" fill="#000000" >
  :type opts: argpars
</text>
<text x="297.0" y="434.9" font-family="monospace" font-size="14.0" fill="#000000" >
  r
</text>
<text x="17.0" y="448.9" font-family="monospace" font-size="14.0" fill="#000000" >
  :param args: List of subjects
</text>
<text x="17.0" y="462.9" font-family="monospace" font-size="14.0" fill="#000000" >
  :type args: list
</text>
<text x="17.0" y="490.9" font-family="monospace" font-size="14.0" fill="#000000" >
  :returns int: Return code 0
</text>
<text x="451.0" y="490.9" font-family="monospace" font-size="14.0" fill="#000000" >
  su
</text>
<text x="507.0" y="490.9" font-family="monospace" font-size="14.0" fill="#000000" >
  e
</text>
</svg>
