<?xml version="1.0" standalone="no"?>
<!DOCTYPE svg PUBLIC "-//W3C//DTD SVG 1.1//EN" "http://www.w3.org/Graphics/SVG/1.1/DTD/svg11.dtd">

<svg width="1161.0" height="447.0" viewBox="0 0 1161.0 447.0" version="1.1" xmlns="http://www.w3.org/2000/svg" xmlns:xlink="http://www.w3.org/1999/xlink">
<!-- automatically generated by aafigure --><line x1="97.5" y1="24.0" x2="97.5" y2="66.0" stroke="#000000" stroke-width="2.0" />
<line x1="97.5" y1="87.0" x2="66.0" y2="108.0" stroke="#000000" stroke-width="2.0" />
<line x1="97.5" y1="87.0" x2="97.5" y2="129.0" stroke="#000000" stroke-width="2.0" />
<line x1="286.5" y1="87.0" x2="286.5" y2="108.0" stroke="#000000" stroke-width="2.0" />
<line x1="496.5" y1="87.0" x2="496.5" y2="108.0" stroke="#000000" stroke-width="2.0" />
<line x1="885.0" y1="97.5" x2="906.0" y2="97.5" stroke="#000000" stroke-width="4.0" />
<line x1="13.5" y1="108.0" x2="13.5" y2="129.0" stroke="#000000" stroke-width="2.0" />
<line x1="181.5" y1="108.0" x2="181.5" y2="129.0" stroke="#000000" stroke-width="2.0" />
<line x1="255.0" y1="139.5" x2="276.0" y2="139.5" stroke="#000000" stroke-width="4.0" />
<line x1="13.5" y1="150.0" x2="13.5" y2="171.0" stroke="#000000" stroke-width="2.0" />
<line x1="97.5" y1="150.0" x2="97.5" y2="171.0" stroke="#000000" stroke-width="2.0" />
<line x1="181.5" y1="150.0" x2="181.5" y2="171.0" stroke="#000000" stroke-width="2.0" />
<line x1="255.0" y1="181.5" x2="276.0" y2="181.5" stroke="#000000" stroke-width="4.0" />
<line x1="444.0" y1="181.5" x2="465.0" y2="181.5" stroke="#000000" stroke-width="2.0" />
<line x1="13.5" y1="192.0" x2="13.5" y2="213.0" stroke="#000000" stroke-width="2.0" />
<line x1="97.5" y1="192.0" x2="97.5" y2="213.0" stroke="#000000" stroke-width="2.0" />
<line x1="181.5" y1="192.0" x2="181.5" y2="213.0" stroke="#000000" stroke-width="2.0" />
<line x1="255.0" y1="223.5" x2="276.0" y2="223.5" stroke="#000000" stroke-width="4.0" />
<line x1="423.0" y1="223.5" x2="444.0" y2="223.5" stroke="#000000" stroke-width="2.0" />
<line x1="13.5" y1="234.0" x2="13.5" y2="255.0" stroke="#000000" stroke-width="2.0" />
<line x1="97.5" y1="234.0" x2="97.5" y2="255.0" stroke="#000000" stroke-width="2.0" />
<line x1="181.5" y1="234.0" x2="181.5" y2="255.0" stroke="#000000" stroke-width="2.0" />
<line x1="255.0" y1="265.5" x2="276.0" y2="265.5" stroke="#000000" stroke-width="4.0" />
<line x1="360.0" y1="328.5" x2="381.0" y2="328.5" stroke="#000000" stroke-width="2.0" />
<g>
    <line x1="402.0" y1="318.0" x2="402.0" y2="318.0" stroke="#000000" stroke-width="2.0" />
    <line x1="402.0" y1="339.0" x2="423.0" y2="318.0" stroke="#000000" stroke-width="2.0" />
    <line x1="402.0" y1="328.5" x2="412.5" y2="318.0" stroke="#000000" stroke-width="2.0" />
    <line x1="412.5" y1="339.0" x2="423.0" y2="328.5" stroke="#000000" stroke-width="2.0" />
    <line x1="402.0" y1="339.0" x2="402.0" y2="339.0" stroke="#000000" stroke-width="2.0" />
    <line x1="402.0" y1="360.0" x2="423.0" y2="339.0" stroke="#000000" stroke-width="2.0" />
    <line x1="402.0" y1="349.5" x2="412.5" y2="339.0" stroke="#000000" stroke-width="2.0" />
    <line x1="412.5" y1="360.0" x2="423.0" y2="349.5" stroke="#000000" stroke-width="2.0" />
</g>
<line x1="591.0" y1="433.5" x2="633.0" y2="433.5" stroke="#000000" stroke-width="4.0" />
<text x="3.0" y="20.85" font-family="sans-serif" font-size="21.0" fill="#000000" >
  Preinfosource
</text>
<text x="3.0" y="83.85" font-family="sans-serif" font-size="21.0" fill="#000000" >
  Infosource
</text>
<text x="234.0" y="104.85" font-family="sans-serif" font-size="21.0" fill="#000000" >
  /
</text>
<text x="423.0" y="104.85" font-family="sans-serif" font-size="21.0" fill="#000000" >
  /
</text>
<text x="633.0" y="104.85" font-family="sans-serif" font-size="21.0" fill="#000000" >
  D
</text>
<text x="717.0" y="104.85" font-family="sans-serif" font-size="21.0" fill="#000000" >
  D
</text>
<text x="801.0" y="104.85" font-family="sans-serif" font-size="21.0" fill="#000000" >
  D
</text>
<text x="927.0" y="104.85" font-family="sans-serif" font-size="21.0" fill="#000000" >
  DataGrabber
</text>
<text x="3.0" y="146.85" font-family="sans-serif" font-size="21.0" fill="#000000" >
  C
</text>
<text x="87.0" y="146.85" font-family="sans-serif" font-size="21.0" fill="#000000" >
  C
</text>
<text x="171.0" y="146.85" font-family="sans-serif" font-size="21.0" fill="#000000" >
  C
</text>
<text x="297.0" y="146.85" font-family="sans-serif" font-size="21.0" fill="#000000" >
  Coregistration
</text>
<text x="3.0" y="188.85" font-family="sans-serif" font-size="21.0" fill="#000000" >
  P
</text>
<text x="87.0" y="188.85" font-family="sans-serif" font-size="21.0" fill="#000000" >
  P
</text>
<text x="171.0" y="188.85" font-family="sans-serif" font-size="21.0" fill="#000000" >
  P
</text>
<text x="297.0" y="188.85" font-family="sans-serif" font-size="21.0" fill="#000000" >
  Partial
</text>
<text x="465.0" y="188.85" font-family="sans-serif" font-size="21.0" fill="#000000" >
  volume Correction
</text>
<text x="3.0" y="230.85" font-family="sans-serif" font-size="21.0" fill="#000000" >
  T
</text>
<text x="87.0" y="230.85" font-family="sans-serif" font-size="21.0" fill="#000000" >
  T
</text>
<text x="171.0" y="230.85" font-family="sans-serif" font-size="21.0" fill="#000000" >
  T
</text>
<text x="297.0" y="230.85" font-family="sans-serif" font-size="21.0" fill="#000000" >
  Tracer
</text>
<text x="444.0" y="230.85" font-family="sans-serif" font-size="21.0" fill="#000000" >
  kinetic analysis
</text>
<text x="3.0" y="272.85" font-family="sans-serif" font-size="21.0" fill="#000000" >
  R
</text>
<text x="87.0" y="272.85" font-family="sans-serif" font-size="21.0" fill="#000000" >
  R
</text>
<text x="171.0" y="272.85" font-family="sans-serif" font-size="21.0" fill="#000000" >
  R
</text>
<text x="297.0" y="272.85" font-family="sans-serif" font-size="21.0" fill="#000000" >
  Results report
</text>
<text x="3.0" y="335.85" font-family="sans-serif" font-size="21.0" fill="#000000" >
  :param opts: User
</text>
<text x="381.0" y="335.85" font-family="sans-serif" font-size="21.0" fill="#000000" >
  d
</text>
<text x="423.0" y="335.85" font-family="sans-serif" font-size="21.0" fill="#000000" >
  fined options
</text>
<text x="3.0" y="356.85" font-family="sans-serif" font-size="21.0" fill="#000000" >
  :type opts: argpars
</text>
<text x="423.0" y="356.85" font-family="sans-serif" font-size="21.0" fill="#000000" >
  r
</text>
<text x="3.0" y="377.85" font-family="sans-serif" font-size="21.0" fill="#000000" >
  :param args: List of subjects
</text>
<text x="3.0" y="398.85" font-family="sans-serif" font-size="21.0" fill="#000000" >
  :type args: list
</text>
<text x="3.0" y="440.85" font-family="sans-serif" font-size="21.0" fill="#000000" >
  :returns int: Return code 0
</text>
<text x="654.0" y="440.85" font-family="sans-serif" font-size="21.0" fill="#000000" >
  success
</text>
</svg>
