<?xml version="1.0" standalone="no"?>
<!DOCTYPE svg PUBLIC "-//W3C//DTD SVG 1.1//EN" "http://www.w3.org/Graphics/SVG/1.1/DTD/svg11.dtd">

<svg width="580.0" height="454.0" viewBox="0 0 580.0 454.0" version="1.1" xmlns="http://www.w3.org/2000/svg" xmlns:xlink="http://www.w3.org/1999/xlink">
<!-- automatically generated by aafigure --><line x1="10.0" y1="80.0" x2="206.0" y2="80.0" stroke="#000000" stroke-width="2.0" />
<line x1="10.0" y1="80.0" x2="10.0" y2="108.0" stroke="#000000" stroke-width="2.0" />
<line x1="206.0" y1="80.0" x2="206.0" y2="108.0" stroke="#000000" stroke-width="2.0" />
<line x1="10.0" y1="108.0" x2="206.0" y2="108.0" stroke="#000000" stroke-width="2.0" />
<line x1="80.0" y1="115.0" x2="80.0" y2="143.0" stroke="#000000" stroke-width="2.0" />
<line x1="24.0" y1="150.0" x2="178.0" y2="150.0" stroke="#000000" stroke-width="2.0" />
<line x1="24.0" y1="150.0" x2="24.0" y2="178.0" stroke="#000000" stroke-width="2.0" />
<line x1="178.0" y1="150.0" x2="178.0" y2="178.0" stroke="#000000" stroke-width="2.0" />
<line x1="24.0" y1="178.0" x2="178.0" y2="178.0" stroke="#000000" stroke-width="2.0" />
<line x1="73.0" y1="178.0" x2="59.0" y2="199.0" stroke="#000000" stroke-width="2.0" />
<line x1="80.0" y1="185.0" x2="80.0" y2="199.0" stroke="#000000" stroke-width="2.0" />
<line x1="206.0" y1="185.0" x2="206.0" y2="199.0" stroke="#000000" stroke-width="2.0" />
<line x1="346.0" y1="185.0" x2="346.0" y2="199.0" stroke="#000000" stroke-width="2.0" />
<line x1="430.0" y1="192.0" x2="458.0" y2="192.0" stroke="#000000" stroke-width="2.0" />
<line x1="486.0" y1="192.0" x2="514.0" y2="192.0" stroke="#000000" stroke-width="2.0" />
<line x1="542.0" y1="192.0" x2="570.0" y2="192.0" stroke="#000000" stroke-width="2.0" />
<line x1="10.0" y1="199.0" x2="10.0" y2="220.0" stroke="#000000" stroke-width="2.0" />
<line x1="38.0" y1="199.0" x2="38.0" y2="220.0" stroke="#000000" stroke-width="2.0" />
<line x1="66.0" y1="199.0" x2="66.0" y2="220.0" stroke="#000000" stroke-width="2.0" />
<line x1="94.0" y1="199.0" x2="94.0" y2="220.0" stroke="#000000" stroke-width="2.0" />
<line x1="122.0" y1="199.0" x2="122.0" y2="220.0" stroke="#000000" stroke-width="2.0" />
<line x1="150.0" y1="199.0" x2="150.0" y2="220.0" stroke="#000000" stroke-width="2.0" />
<line x1="10.0" y1="220.0" x2="38.0" y2="220.0" stroke="#000000" stroke-width="2.0" />
<line x1="66.0" y1="220.0" x2="94.0" y2="220.0" stroke="#000000" stroke-width="2.0" />
<line x1="122.0" y1="220.0" x2="150.0" y2="220.0" stroke="#000000" stroke-width="2.0" />
<line x1="24.0" y1="227.0" x2="24.0" y2="241.0" stroke="#000000" stroke-width="2.0" />
<line x1="80.0" y1="227.0" x2="80.0" y2="241.0" stroke="#000000" stroke-width="2.0" />
<line x1="136.0" y1="227.0" x2="136.0" y2="241.0" stroke="#000000" stroke-width="2.0" />
<line x1="185.0" y1="248.0" x2="199.0" y2="248.0" stroke="#000000" stroke-width="4.0" />
<line x1="24.0" y1="255.0" x2="24.0" y2="269.0" stroke="#000000" stroke-width="2.0" />
<line x1="80.0" y1="255.0" x2="80.0" y2="269.0" stroke="#000000" stroke-width="2.0" />
<line x1="136.0" y1="255.0" x2="136.0" y2="269.0" stroke="#000000" stroke-width="2.0" />
<line x1="185.0" y1="276.0" x2="199.0" y2="276.0" stroke="#000000" stroke-width="4.0" />
<line x1="311.0" y1="276.0" x2="325.0" y2="276.0" stroke="#000000" stroke-width="2.0" />
<g>
    <line x1="452.166666667" y1="269.0" x2="452.166666667" y2="283.0" stroke="#000000" stroke-width="2.0" />
    <line x1="456.833333333" y1="269.0" x2="456.833333333" y2="283.0" stroke="#000000" stroke-width="2.0" />
    <line x1="461.5" y1="269.0" x2="461.5" y2="283.0" stroke="#000000" stroke-width="2.0" />
    <line x1="451.0" y1="270.166666667" x2="465.0" y2="270.166666667" stroke="#000000" stroke-width="2.0" />
    <line x1="451.0" y1="274.833333333" x2="465.0" y2="274.833333333" stroke="#000000" stroke-width="2.0" />
    <line x1="451.0" y1="279.5" x2="465.0" y2="279.5" stroke="#000000" stroke-width="2.0" />
    <line x1="466.166666667" y1="269.0" x2="466.166666667" y2="283.0" stroke="#000000" stroke-width="2.0" />
    <line x1="470.833333333" y1="269.0" x2="470.833333333" y2="283.0" stroke="#000000" stroke-width="2.0" />
    <line x1="475.5" y1="269.0" x2="475.5" y2="283.0" stroke="#000000" stroke-width="2.0" />
    <line x1="465.0" y1="270.166666667" x2="479.0" y2="270.166666667" stroke="#000000" stroke-width="2.0" />
    <line x1="465.0" y1="274.833333333" x2="479.0" y2="274.833333333" stroke="#000000" stroke-width="2.0" />
    <line x1="465.0" y1="279.5" x2="479.0" y2="279.5" stroke="#000000" stroke-width="2.0" />
</g>
<line x1="24.0" y1="283.0" x2="24.0" y2="297.0" stroke="#000000" stroke-width="2.0" />
<line x1="80.0" y1="283.0" x2="80.0" y2="297.0" stroke="#000000" stroke-width="2.0" />
<line x1="136.0" y1="283.0" x2="136.0" y2="297.0" stroke="#000000" stroke-width="2.0" />
<line x1="185.0" y1="304.0" x2="199.0" y2="304.0" stroke="#000000" stroke-width="4.0" />
<line x1="297.0" y1="304.0" x2="311.0" y2="304.0" stroke="#000000" stroke-width="2.0" />
<line x1="24.0" y1="311.0" x2="24.0" y2="325.0" stroke="#000000" stroke-width="2.0" />
<line x1="80.0" y1="311.0" x2="80.0" y2="325.0" stroke="#000000" stroke-width="2.0" />
<line x1="136.0" y1="311.0" x2="136.0" y2="325.0" stroke="#000000" stroke-width="2.0" />
<line x1="185.0" y1="332.0" x2="199.0" y2="332.0" stroke="#000000" stroke-width="4.0" />
<line x1="255.0" y1="374.0" x2="269.0" y2="374.0" stroke="#000000" stroke-width="2.0" />
<g>
    <line x1="283.0" y1="367.0" x2="283.0" y2="367.0" stroke="#000000" stroke-width="2.0" />
    <line x1="283.0" y1="381.0" x2="297.0" y2="367.0" stroke="#000000" stroke-width="2.0" />
    <line x1="283.0" y1="374.0" x2="290.0" y2="367.0" stroke="#000000" stroke-width="2.0" />
    <line x1="290.0" y1="381.0" x2="297.0" y2="374.0" stroke="#000000" stroke-width="2.0" />
    <line x1="283.0" y1="381.0" x2="283.0" y2="381.0" stroke="#000000" stroke-width="2.0" />
    <line x1="283.0" y1="395.0" x2="297.0" y2="381.0" stroke="#000000" stroke-width="2.0" />
    <line x1="283.0" y1="388.0" x2="290.0" y2="381.0" stroke="#000000" stroke-width="2.0" />
    <line x1="290.0" y1="395.0" x2="297.0" y2="388.0" stroke="#000000" stroke-width="2.0" />
</g>
<line x1="409.0" y1="444.0" x2="437.0" y2="444.0" stroke="#000000" stroke-width="4.0" />
<g>
    <line x1="479.0" y1="437.0" x2="493.0" y2="451.0" stroke="#000000" stroke-width="2.0" />
    <line x1="493.0" y1="437.0" x2="493.0" y2="437.0" stroke="#000000" stroke-width="2.0" />
    <line x1="479.0" y1="437.0" x2="479.0" y2="437.0" stroke="#000000" stroke-width="2.0" />
    <line x1="479.0" y1="451.0" x2="493.0" y2="437.0" stroke="#000000" stroke-width="2.0" />
    <line x1="493.0" y1="437.0" x2="507.0" y2="451.0" stroke="#000000" stroke-width="2.0" />
    <line x1="507.0" y1="437.0" x2="507.0" y2="437.0" stroke="#000000" stroke-width="2.0" />
    <line x1="493.0" y1="437.0" x2="493.0" y2="437.0" stroke="#000000" stroke-width="2.0" />
    <line x1="493.0" y1="451.0" x2="507.0" y2="437.0" stroke="#000000" stroke-width="2.0" />
</g>
<g>
    <text x="521.0" y="448.9" font-family="monospace" font-size="14.0" fill="#000000" >
  ?
    </text>
    <text x="535.0" y="448.9" font-family="monospace" font-size="14.0" fill="#000000" >
  ?
    </text>
</g>
<text x="17.0" y="14.9" font-family="monospace" font-size="14.0" fill="#000000" >
  :aspect: 60
</text>
<text x="17.0" y="28.9" font-family="monospace" font-size="14.0" fill="#000000" >
  :scale: 150
</text>
<text x="17.0" y="42.9" font-family="monospace" font-size="14.0" fill="#000000" >
  :proportional:
</text>
<text x="17.0" y="56.9" font-family="monospace" font-size="14.0" fill="#000000" >
  :textual:
</text>
<text x="17.0" y="98.9" font-family="monospace" font-size="14.0" fill="#000000" >
  Preinfosource
</text>
<text x="31.0" y="168.9" font-family="monospace" font-size="14.0" fill="#000000" >
  Infosource
</text>
<text x="171.0" y="196.9" font-family="monospace" font-size="14.0" fill="#000000" >
  /
</text>
<text x="297.0" y="196.9" font-family="monospace" font-size="14.0" fill="#000000" >
  /
</text>
<text x="17.0" y="210.9" font-family="monospace" font-size="14.0" fill="#000000" >
  D
</text>
<text x="73.0" y="210.9" font-family="monospace" font-size="14.0" fill="#000000" >
  D
</text>
<text x="129.0" y="210.9" font-family="monospace" font-size="14.0" fill="#000000" >
  D
</text>
<text x="17.0" y="252.9" font-family="monospace" font-size="14.0" fill="#000000" >
  C
</text>
<text x="73.0" y="252.9" font-family="monospace" font-size="14.0" fill="#000000" >
  C
</text>
<text x="129.0" y="252.9" font-family="monospace" font-size="14.0" fill="#000000" >
  C
</text>
<text x="213.0" y="252.9" font-family="monospace" font-size="14.0" fill="#000000" >
  Coregistration
</text>
<text x="17.0" y="280.9" font-family="monospace" font-size="14.0" fill="#000000" >
  P
</text>
<text x="73.0" y="280.9" font-family="monospace" font-size="14.0" fill="#000000" >
  P
</text>
<text x="129.0" y="280.9" font-family="monospace" font-size="14.0" fill="#000000" >
  P
</text>
<text x="213.0" y="280.9" font-family="monospace" font-size="14.0" fill="#000000" >
  Partial
</text>
<text x="325.0" y="280.9" font-family="monospace" font-size="14.0" fill="#000000" >
  volume Co
</text>
<text x="479.0" y="280.9" font-family="monospace" font-size="14.0" fill="#000000" >
  ection
</text>
<text x="17.0" y="308.9" font-family="monospace" font-size="14.0" fill="#000000" >
  T
</text>
<text x="73.0" y="308.9" font-family="monospace" font-size="14.0" fill="#000000" >
  T
</text>
<text x="129.0" y="308.9" font-family="monospace" font-size="14.0" fill="#000000" >
  T
</text>
<text x="213.0" y="308.9" font-family="monospace" font-size="14.0" fill="#000000" >
  Tracer
</text>
<text x="311.0" y="308.9" font-family="monospace" font-size="14.0" fill="#000000" >
  kinetic analysis
</text>
<text x="17.0" y="336.9" font-family="monospace" font-size="14.0" fill="#000000" >
  R
</text>
<text x="73.0" y="336.9" font-family="monospace" font-size="14.0" fill="#000000" >
  R
</text>
<text x="129.0" y="336.9" font-family="monospace" font-size="14.0" fill="#000000" >
  R
</text>
<text x="213.0" y="336.9" font-family="monospace" font-size="14.0" fill="#000000" >
  Results report
</text>
<text x="17.0" y="378.9" font-family="monospace" font-size="14.0" fill="#000000" >
  :param opts: User
</text>
<text x="269.0" y="378.9" font-family="monospace" font-size="14.0" fill="#000000" >
  d
</text>
<text x="297.0" y="378.9" font-family="monospace" font-size="14.0" fill="#000000" >
  fined options
</text>
<text x="17.0" y="392.9" font-family="monospace" font-size="14.0" fill="#000000" >
  :type opts: argpars
</text>
<text x="297.0" y="392.9" font-family="monospace" font-size="14.0" fill="#000000" >
  r
</text>
<text x="17.0" y="406.9" font-family="monospace" font-size="14.0" fill="#000000" >
  :param args: List of subjects
</text>
<text x="17.0" y="420.9" font-family="monospace" font-size="14.0" fill="#000000" >
  :type args: list
</text>
<text x="17.0" y="448.9" font-family="monospace" font-size="14.0" fill="#000000" >
  :returns int: Return code 0
</text>
<text x="451.0" y="448.9" font-family="monospace" font-size="14.0" fill="#000000" >
  su
</text>
<text x="507.0" y="448.9" font-family="monospace" font-size="14.0" fill="#000000" >
  e
</text>
</svg>
