<?xml version="1.0" standalone="no"?>
<!DOCTYPE svg PUBLIC "-//W3C//DTD SVG 1.1//EN" "http://www.w3.org/Graphics/SVG/1.1/DTD/svg11.dtd">

<svg width="608.0" height="426.0" viewBox="0 0 608.0 426.0" version="1.1" xmlns="http://www.w3.org/2000/svg" xmlns:xlink="http://www.w3.org/1999/xlink">
<!-- automatically generated by aafigure --><text x="227.0" y="182.9" font-family="monospace" font-size="14.0" fill="#000000" >
  DataGrabber
</text>
<text x="227.0" y="238.9" font-family="monospace" font-size="14.0" fill="#000000" >
  Coregistration
</text>
<text x="227.0" y="294.9" font-family="monospace" font-size="14.0" fill="#000000" >
  Partial volume correction
</text>
<text x="227.0" y="350.9" font-family="monospace" font-size="14.0" fill="#000000" >
  Tracer kinetic analysis
</text>
<text x="227.0" y="406.9" font-family="monospace" font-size="14.0" fill="#000000" >
  Results report
</text>
<line x1="10.0" y1="10.0" x2="206.0" y2="10.0" stroke="#000000" stroke-width="2.0" />
<line x1="10.0" y1="10.0" x2="10.0" y2="38.0" stroke="#000000" stroke-width="2.0" />
<line x1="206.0" y1="10.0" x2="206.0" y2="38.0" stroke="#000000" stroke-width="2.0" />
<line x1="10.0" y1="38.0" x2="94.0" y2="38.0" stroke="#000000" stroke-width="2.0" />
<line x1="94.0" y1="38.0" x2="206.0" y2="38.0" stroke="#000000" stroke-width="2.0" />
<line x1="94.0" y1="38.0" x2="94.0" y2="80.0" stroke="#000000" stroke-width="2.0" />
<line x1="24.0" y1="80.0" x2="94.0" y2="80.0" stroke="#000000" stroke-width="2.0" />
<line x1="94.0" y1="80.0" x2="178.0" y2="80.0" stroke="#000000" stroke-width="2.0" />
<line x1="24.0" y1="80.0" x2="24.0" y2="108.0" stroke="#000000" stroke-width="2.0" />
<line x1="178.0" y1="80.0" x2="178.0" y2="108.0" stroke="#000000" stroke-width="2.0" />
<line x1="24.0" y1="108.0" x2="52.0" y2="108.0" stroke="#000000" stroke-width="2.0" />
<line x1="52.0" y1="108.0" x2="108.0" y2="108.0" stroke="#000000" stroke-width="2.0" />
<line x1="108.0" y1="108.0" x2="164.0" y2="108.0" stroke="#000000" stroke-width="2.0" />
<line x1="164.0" y1="108.0" x2="178.0" y2="108.0" stroke="#000000" stroke-width="2.0" />
<line x1="52.0" y1="108.0" x2="52.0" y2="164.0" stroke="#000000" stroke-width="2.0" />
<line x1="108.0" y1="108.0" x2="108.0" y2="164.0" stroke="#000000" stroke-width="2.0" />
<line x1="164.0" y1="108.0" x2="164.0" y2="164.0" stroke="#000000" stroke-width="2.0" />
<line x1="38.0" y1="164.0" x2="52.0" y2="164.0" stroke="#000000" stroke-width="2.0" />
<line x1="52.0" y1="164.0" x2="66.0" y2="164.0" stroke="#000000" stroke-width="2.0" />
<line x1="94.0" y1="164.0" x2="108.0" y2="164.0" stroke="#000000" stroke-width="2.0" />
<line x1="108.0" y1="164.0" x2="122.0" y2="164.0" stroke="#000000" stroke-width="2.0" />
<line x1="150.0" y1="164.0" x2="164.0" y2="164.0" stroke="#000000" stroke-width="2.0" />
<line x1="164.0" y1="164.0" x2="178.0" y2="164.0" stroke="#000000" stroke-width="2.0" />
<line x1="38.0" y1="164.0" x2="38.0" y2="192.0" stroke="#000000" stroke-width="2.0" />
<line x1="66.0" y1="164.0" x2="66.0" y2="192.0" stroke="#000000" stroke-width="2.0" />
<line x1="94.0" y1="164.0" x2="94.0" y2="192.0" stroke="#000000" stroke-width="2.0" />
<line x1="122.0" y1="164.0" x2="122.0" y2="192.0" stroke="#000000" stroke-width="2.0" />
<line x1="150.0" y1="164.0" x2="150.0" y2="192.0" stroke="#000000" stroke-width="2.0" />
<line x1="178.0" y1="164.0" x2="178.0" y2="192.0" stroke="#000000" stroke-width="2.0" />
<line x1="199.0" y1="178.0" x2="213.0" y2="178.0" stroke="#000000" stroke-width="4.0" />
<line x1="38.0" y1="192.0" x2="52.0" y2="192.0" stroke="#000000" stroke-width="2.0" />
<line x1="52.0" y1="192.0" x2="66.0" y2="192.0" stroke="#000000" stroke-width="2.0" />
<line x1="94.0" y1="192.0" x2="108.0" y2="192.0" stroke="#000000" stroke-width="2.0" />
<line x1="108.0" y1="192.0" x2="122.0" y2="192.0" stroke="#000000" stroke-width="2.0" />
<line x1="150.0" y1="192.0" x2="164.0" y2="192.0" stroke="#000000" stroke-width="2.0" />
<line x1="164.0" y1="192.0" x2="178.0" y2="192.0" stroke="#000000" stroke-width="2.0" />
<line x1="52.0" y1="192.0" x2="52.0" y2="220.0" stroke="#000000" stroke-width="2.0" />
<line x1="108.0" y1="192.0" x2="108.0" y2="220.0" stroke="#000000" stroke-width="2.0" />
<line x1="164.0" y1="192.0" x2="164.0" y2="220.0" stroke="#000000" stroke-width="2.0" />
<line x1="38.0" y1="220.0" x2="52.0" y2="220.0" stroke="#000000" stroke-width="2.0" />
<line x1="52.0" y1="220.0" x2="66.0" y2="220.0" stroke="#000000" stroke-width="2.0" />
<line x1="94.0" y1="220.0" x2="108.0" y2="220.0" stroke="#000000" stroke-width="2.0" />
<line x1="108.0" y1="220.0" x2="122.0" y2="220.0" stroke="#000000" stroke-width="2.0" />
<line x1="150.0" y1="220.0" x2="164.0" y2="220.0" stroke="#000000" stroke-width="2.0" />
<line x1="164.0" y1="220.0" x2="178.0" y2="220.0" stroke="#000000" stroke-width="2.0" />
<line x1="38.0" y1="220.0" x2="38.0" y2="248.0" stroke="#000000" stroke-width="2.0" />
<line x1="66.0" y1="220.0" x2="66.0" y2="248.0" stroke="#000000" stroke-width="2.0" />
<line x1="94.0" y1="220.0" x2="94.0" y2="248.0" stroke="#000000" stroke-width="2.0" />
<line x1="122.0" y1="220.0" x2="122.0" y2="248.0" stroke="#000000" stroke-width="2.0" />
<line x1="150.0" y1="220.0" x2="150.0" y2="248.0" stroke="#000000" stroke-width="2.0" />
<line x1="178.0" y1="220.0" x2="178.0" y2="248.0" stroke="#000000" stroke-width="2.0" />
<line x1="199.0" y1="234.0" x2="213.0" y2="234.0" stroke="#000000" stroke-width="4.0" />
<line x1="38.0" y1="248.0" x2="52.0" y2="248.0" stroke="#000000" stroke-width="2.0" />
<line x1="52.0" y1="248.0" x2="66.0" y2="248.0" stroke="#000000" stroke-width="2.0" />
<line x1="94.0" y1="248.0" x2="108.0" y2="248.0" stroke="#000000" stroke-width="2.0" />
<line x1="108.0" y1="248.0" x2="122.0" y2="248.0" stroke="#000000" stroke-width="2.0" />
<line x1="150.0" y1="248.0" x2="164.0" y2="248.0" stroke="#000000" stroke-width="2.0" />
<line x1="164.0" y1="248.0" x2="178.0" y2="248.0" stroke="#000000" stroke-width="2.0" />
<line x1="52.0" y1="248.0" x2="52.0" y2="276.0" stroke="#000000" stroke-width="2.0" />
<line x1="108.0" y1="248.0" x2="108.0" y2="276.0" stroke="#000000" stroke-width="2.0" />
<line x1="164.0" y1="248.0" x2="164.0" y2="276.0" stroke="#000000" stroke-width="2.0" />
<line x1="38.0" y1="276.0" x2="52.0" y2="276.0" stroke="#000000" stroke-width="2.0" />
<line x1="52.0" y1="276.0" x2="66.0" y2="276.0" stroke="#000000" stroke-width="2.0" />
<line x1="94.0" y1="276.0" x2="108.0" y2="276.0" stroke="#000000" stroke-width="2.0" />
<line x1="108.0" y1="276.0" x2="122.0" y2="276.0" stroke="#000000" stroke-width="2.0" />
<line x1="150.0" y1="276.0" x2="164.0" y2="276.0" stroke="#000000" stroke-width="2.0" />
<line x1="164.0" y1="276.0" x2="178.0" y2="276.0" stroke="#000000" stroke-width="2.0" />
<line x1="38.0" y1="276.0" x2="38.0" y2="304.0" stroke="#000000" stroke-width="2.0" />
<line x1="66.0" y1="276.0" x2="66.0" y2="304.0" stroke="#000000" stroke-width="2.0" />
<line x1="94.0" y1="276.0" x2="94.0" y2="304.0" stroke="#000000" stroke-width="2.0" />
<line x1="122.0" y1="276.0" x2="122.0" y2="304.0" stroke="#000000" stroke-width="2.0" />
<line x1="150.0" y1="276.0" x2="150.0" y2="304.0" stroke="#000000" stroke-width="2.0" />
<line x1="178.0" y1="276.0" x2="178.0" y2="304.0" stroke="#000000" stroke-width="2.0" />
<line x1="199.0" y1="290.0" x2="213.0" y2="290.0" stroke="#000000" stroke-width="4.0" />
<line x1="38.0" y1="304.0" x2="52.0" y2="304.0" stroke="#000000" stroke-width="2.0" />
<line x1="52.0" y1="304.0" x2="66.0" y2="304.0" stroke="#000000" stroke-width="2.0" />
<line x1="94.0" y1="304.0" x2="108.0" y2="304.0" stroke="#000000" stroke-width="2.0" />
<line x1="108.0" y1="304.0" x2="122.0" y2="304.0" stroke="#000000" stroke-width="2.0" />
<line x1="150.0" y1="304.0" x2="164.0" y2="304.0" stroke="#000000" stroke-width="2.0" />
<line x1="164.0" y1="304.0" x2="178.0" y2="304.0" stroke="#000000" stroke-width="2.0" />
<line x1="52.0" y1="304.0" x2="52.0" y2="332.0" stroke="#000000" stroke-width="2.0" />
<line x1="108.0" y1="304.0" x2="108.0" y2="332.0" stroke="#000000" stroke-width="2.0" />
<line x1="164.0" y1="304.0" x2="164.0" y2="332.0" stroke="#000000" stroke-width="2.0" />
<line x1="38.0" y1="332.0" x2="52.0" y2="332.0" stroke="#000000" stroke-width="2.0" />
<line x1="52.0" y1="332.0" x2="66.0" y2="332.0" stroke="#000000" stroke-width="2.0" />
<line x1="94.0" y1="332.0" x2="108.0" y2="332.0" stroke="#000000" stroke-width="2.0" />
<line x1="108.0" y1="332.0" x2="122.0" y2="332.0" stroke="#000000" stroke-width="2.0" />
<line x1="150.0" y1="332.0" x2="164.0" y2="332.0" stroke="#000000" stroke-width="2.0" />
<line x1="164.0" y1="332.0" x2="178.0" y2="332.0" stroke="#000000" stroke-width="2.0" />
<line x1="38.0" y1="332.0" x2="38.0" y2="360.0" stroke="#000000" stroke-width="2.0" />
<line x1="66.0" y1="332.0" x2="66.0" y2="360.0" stroke="#000000" stroke-width="2.0" />
<line x1="94.0" y1="332.0" x2="94.0" y2="360.0" stroke="#000000" stroke-width="2.0" />
<line x1="122.0" y1="332.0" x2="122.0" y2="360.0" stroke="#000000" stroke-width="2.0" />
<line x1="150.0" y1="332.0" x2="150.0" y2="360.0" stroke="#000000" stroke-width="2.0" />
<line x1="178.0" y1="332.0" x2="178.0" y2="360.0" stroke="#000000" stroke-width="2.0" />
<line x1="199.0" y1="346.0" x2="213.0" y2="346.0" stroke="#000000" stroke-width="4.0" />
<line x1="38.0" y1="360.0" x2="52.0" y2="360.0" stroke="#000000" stroke-width="2.0" />
<line x1="52.0" y1="360.0" x2="66.0" y2="360.0" stroke="#000000" stroke-width="2.0" />
<line x1="94.0" y1="360.0" x2="108.0" y2="360.0" stroke="#000000" stroke-width="2.0" />
<line x1="108.0" y1="360.0" x2="122.0" y2="360.0" stroke="#000000" stroke-width="2.0" />
<line x1="150.0" y1="360.0" x2="164.0" y2="360.0" stroke="#000000" stroke-width="2.0" />
<line x1="164.0" y1="360.0" x2="178.0" y2="360.0" stroke="#000000" stroke-width="2.0" />
<line x1="52.0" y1="360.0" x2="52.0" y2="388.0" stroke="#000000" stroke-width="2.0" />
<line x1="108.0" y1="360.0" x2="108.0" y2="388.0" stroke="#000000" stroke-width="2.0" />
<line x1="164.0" y1="360.0" x2="164.0" y2="388.0" stroke="#000000" stroke-width="2.0" />
<line x1="38.0" y1="388.0" x2="52.0" y2="388.0" stroke="#000000" stroke-width="2.0" />
<line x1="52.0" y1="388.0" x2="66.0" y2="388.0" stroke="#000000" stroke-width="2.0" />
<line x1="94.0" y1="388.0" x2="108.0" y2="388.0" stroke="#000000" stroke-width="2.0" />
<line x1="108.0" y1="388.0" x2="122.0" y2="388.0" stroke="#000000" stroke-width="2.0" />
<line x1="150.0" y1="388.0" x2="164.0" y2="388.0" stroke="#000000" stroke-width="2.0" />
<line x1="164.0" y1="388.0" x2="178.0" y2="388.0" stroke="#000000" stroke-width="2.0" />
<line x1="38.0" y1="388.0" x2="38.0" y2="416.0" stroke="#000000" stroke-width="2.0" />
<line x1="66.0" y1="388.0" x2="66.0" y2="416.0" stroke="#000000" stroke-width="2.0" />
<line x1="94.0" y1="388.0" x2="94.0" y2="416.0" stroke="#000000" stroke-width="2.0" />
<line x1="122.0" y1="388.0" x2="122.0" y2="416.0" stroke="#000000" stroke-width="2.0" />
<line x1="150.0" y1="388.0" x2="150.0" y2="416.0" stroke="#000000" stroke-width="2.0" />
<line x1="178.0" y1="388.0" x2="178.0" y2="416.0" stroke="#000000" stroke-width="2.0" />
<line x1="199.0" y1="402.0" x2="213.0" y2="402.0" stroke="#000000" stroke-width="4.0" />
<line x1="38.0" y1="416.0" x2="52.0" y2="416.0" stroke="#000000" stroke-width="2.0" />
<line x1="52.0" y1="416.0" x2="66.0" y2="416.0" stroke="#000000" stroke-width="2.0" />
<line x1="94.0" y1="416.0" x2="108.0" y2="416.0" stroke="#000000" stroke-width="2.0" />
<line x1="108.0" y1="416.0" x2="122.0" y2="416.0" stroke="#000000" stroke-width="2.0" />
<line x1="150.0" y1="416.0" x2="164.0" y2="416.0" stroke="#000000" stroke-width="2.0" />
<line x1="164.0" y1="416.0" x2="178.0" y2="416.0" stroke="#000000" stroke-width="2.0" />
<text x="17.0" y="28.9" font-family="monospace" font-size="14.0" fill="#000000" >
  Preinfosource
</text>
<text x="31.0" y="98.9" font-family="monospace" font-size="14.0" fill="#000000" >
  Infosource
</text>
<text x="45.0" y="182.9" font-family="monospace" font-size="14.0" fill="#000000" >
  D
</text>
<text x="101.0" y="182.9" font-family="monospace" font-size="14.0" fill="#000000" >
  D
</text>
<text x="157.0" y="182.9" font-family="monospace" font-size="14.0" fill="#000000" >
  D
</text>
<text x="45.0" y="238.9" font-family="monospace" font-size="14.0" fill="#000000" >
  C
</text>
<text x="101.0" y="238.9" font-family="monospace" font-size="14.0" fill="#000000" >
  C
</text>
<text x="157.0" y="238.9" font-family="monospace" font-size="14.0" fill="#000000" >
  C
</text>
<text x="45.0" y="294.9" font-family="monospace" font-size="14.0" fill="#000000" >
  P
</text>
<text x="101.0" y="294.9" font-family="monospace" font-size="14.0" fill="#000000" >
  P
</text>
<text x="157.0" y="294.9" font-family="monospace" font-size="14.0" fill="#000000" >
  P
</text>
<text x="45.0" y="350.9" font-family="monospace" font-size="14.0" fill="#000000" >
  T
</text>
<text x="101.0" y="350.9" font-family="monospace" font-size="14.0" fill="#000000" >
  T
</text>
<text x="157.0" y="350.9" font-family="monospace" font-size="14.0" fill="#000000" >
  T
</text>
<text x="45.0" y="406.9" font-family="monospace" font-size="14.0" fill="#000000" >
  R
</text>
<text x="101.0" y="406.9" font-family="monospace" font-size="14.0" fill="#000000" >
  R
</text>
<text x="157.0" y="406.9" font-family="monospace" font-size="14.0" fill="#000000" >
  R
</text>
</svg>
