<?xml version="1.0" standalone="no"?>
<!DOCTYPE svg PUBLIC "-//W3C//DTD SVG 1.1//EN" "http://www.w3.org/Graphics/SVG/1.1/DTD/svg11.dtd">

<svg width="412.0" height="356.0" viewBox="0 0 412.0 356.0" version="1.1" xmlns="http://www.w3.org/2000/svg" xmlns:xlink="http://www.w3.org/1999/xlink">
<!-- automatically generated by aafigure --><line x1="234.0" y1="10.0" x2="374.0" y2="10.0" stroke="#000000" stroke-width="2.0" />
<line x1="234.0" y1="10.0" x2="234.0" y2="38.0" stroke="#000000" stroke-width="2.0" />
<line x1="374.0" y1="10.0" x2="374.0" y2="38.0" stroke="#000000" stroke-width="2.0" />
<line x1="66.0" y1="38.0" x2="122.0" y2="38.0" stroke="#000000" stroke-width="2.0" />
<line x1="234.0" y1="38.0" x2="304.0" y2="38.0" stroke="#000000" stroke-width="2.0" />
<line x1="304.0" y1="38.0" x2="374.0" y2="38.0" stroke="#000000" stroke-width="2.0" />
<line x1="66.0" y1="38.0" x2="66.0" y2="66.0" stroke="#000000" stroke-width="2.0" />
<line x1="122.0" y1="38.0" x2="122.0" y2="66.0" stroke="#000000" stroke-width="2.0" />
<line x1="304.0" y1="38.0" x2="304.0" y2="66.0" stroke="#000000" stroke-width="2.0" />
<line x1="66.0" y1="66.0" x2="94.0" y2="66.0" stroke="#000000" stroke-width="2.0" />
<line x1="94.0" y1="66.0" x2="122.0" y2="66.0" stroke="#000000" stroke-width="2.0" />
<line x1="234.0" y1="66.0" x2="304.0" y2="66.0" stroke="#000000" stroke-width="2.0" />
<g>
    <line x1="94.0" y1="178.0" x2="90.5" y2="167.5" stroke="#000000" stroke-width="2.0" />
    <line x1="94.0" y1="178.0" x2="97.5" y2="167.5" stroke="#000000" stroke-width="2.0" />
    <line x1="94.0" y1="66.0" x2="94.0" y2="178.0" stroke="#000000" stroke-width="2.0" />
</g>
<g>
    <line x1="234.0" y1="108.0" x2="230.5" y2="97.5" stroke="#000000" stroke-width="2.0" />
    <line x1="234.0" y1="108.0" x2="237.5" y2="97.5" stroke="#000000" stroke-width="2.0" />
    <line x1="234.0" y1="66.0" x2="234.0" y2="108.0" stroke="#000000" stroke-width="2.0" />
</g>
<g>
    <line x1="304.0" y1="108.0" x2="300.5" y2="97.5" stroke="#000000" stroke-width="2.0" />
    <line x1="304.0" y1="108.0" x2="307.5" y2="97.5" stroke="#000000" stroke-width="2.0" />
    <line x1="304.0" y1="66.0" x2="304.0" y2="108.0" stroke="#000000" stroke-width="2.0" />
</g>
<line x1="10.0" y1="108.0" x2="66.0" y2="108.0" stroke="#000000" stroke-width="2.0" />
<line x1="122.0" y1="108.0" x2="234.0" y2="108.0" stroke="#000000" stroke-width="2.0" />
<line x1="234.0" y1="108.0" x2="248.0" y2="108.0" stroke="#000000" stroke-width="2.0" />
<line x1="290.0" y1="108.0" x2="304.0" y2="108.0" stroke="#000000" stroke-width="2.0" />
<line x1="304.0" y1="108.0" x2="402.0" y2="108.0" stroke="#000000" stroke-width="2.0" />
<line x1="10.0" y1="108.0" x2="10.0" y2="136.0" stroke="#000000" stroke-width="2.0" />
<line x1="66.0" y1="108.0" x2="66.0" y2="136.0" stroke="#000000" stroke-width="2.0" />
<line x1="122.0" y1="108.0" x2="122.0" y2="136.0" stroke="#000000" stroke-width="2.0" />
<line x1="248.0" y1="108.0" x2="248.0" y2="136.0" stroke="#000000" stroke-width="2.0" />
<line x1="290.0" y1="108.0" x2="290.0" y2="136.0" stroke="#000000" stroke-width="2.0" />
<line x1="402.0" y1="108.0" x2="402.0" y2="136.0" stroke="#000000" stroke-width="2.0" />
<line x1="10.0" y1="136.0" x2="38.0" y2="136.0" stroke="#000000" stroke-width="2.0" />
<line x1="38.0" y1="136.0" x2="66.0" y2="136.0" stroke="#000000" stroke-width="2.0" />
<line x1="122.0" y1="136.0" x2="150.0" y2="136.0" stroke="#000000" stroke-width="2.0" />
<line x1="150.0" y1="136.0" x2="248.0" y2="136.0" stroke="#000000" stroke-width="2.0" />
<line x1="290.0" y1="136.0" x2="318.0" y2="136.0" stroke="#000000" stroke-width="2.0" />
<line x1="318.0" y1="136.0" x2="402.0" y2="136.0" stroke="#000000" stroke-width="2.0" />
<g>
    <line x1="38.0" y1="178.0" x2="34.5" y2="167.5" stroke="#000000" stroke-width="2.0" />
    <line x1="38.0" y1="178.0" x2="41.5" y2="167.5" stroke="#000000" stroke-width="2.0" />
    <line x1="38.0" y1="136.0" x2="38.0" y2="178.0" stroke="#000000" stroke-width="2.0" />
</g>
<g>
    <line x1="150.0" y1="178.0" x2="146.5" y2="167.5" stroke="#000000" stroke-width="2.0" />
    <line x1="150.0" y1="178.0" x2="153.5" y2="167.5" stroke="#000000" stroke-width="2.0" />
    <line x1="150.0" y1="136.0" x2="150.0" y2="178.0" stroke="#000000" stroke-width="2.0" />
</g>
<line x1="318.0" y1="136.0" x2="318.0" y2="234.0" stroke="#000000" stroke-width="2.0" />
<line x1="10.0" y1="178.0" x2="38.0" y2="178.0" stroke="#000000" stroke-width="2.0" />
<line x1="38.0" y1="178.0" x2="94.0" y2="178.0" stroke="#000000" stroke-width="2.0" />
<line x1="94.0" y1="178.0" x2="150.0" y2="178.0" stroke="#000000" stroke-width="2.0" />
<line x1="150.0" y1="178.0" x2="164.0" y2="178.0" stroke="#000000" stroke-width="2.0" />
<line x1="164.0" y1="178.0" x2="164.0" y2="192.0" stroke="#000000" stroke-width="2.0" />
<line x1="10.0" y1="178.0" x2="10.0" y2="206.0" stroke="#000000" stroke-width="2.0" />
<line x1="164.0" y1="192.0" x2="164.0" y2="206.0" stroke="#000000" stroke-width="2.0" />
<line x1="10.0" y1="206.0" x2="38.0" y2="206.0" stroke="#000000" stroke-width="2.0" />
<line x1="38.0" y1="206.0" x2="94.0" y2="206.0" stroke="#000000" stroke-width="2.0" />
<line x1="94.0" y1="206.0" x2="150.0" y2="206.0" stroke="#000000" stroke-width="2.0" />
<line x1="150.0" y1="206.0" x2="164.0" y2="206.0" stroke="#000000" stroke-width="2.0" />
<g>
    <line x1="38.0" y1="290.0" x2="34.5" y2="279.5" stroke="#000000" stroke-width="2.0" />
    <line x1="38.0" y1="290.0" x2="41.5" y2="279.5" stroke="#000000" stroke-width="2.0" />
    <line x1="38.0" y1="206.0" x2="38.0" y2="290.0" stroke="#000000" stroke-width="2.0" />
</g>
<line x1="94.0" y1="206.0" x2="94.0" y2="234.0" stroke="#000000" stroke-width="2.0" />
<line x1="150.0" y1="206.0" x2="150.0" y2="234.0" stroke="#000000" stroke-width="2.0" />
<line x1="66.0" y1="234.0" x2="94.0" y2="234.0" stroke="#000000" stroke-width="2.0" />
<line x1="94.0" y1="234.0" x2="122.0" y2="234.0" stroke="#000000" stroke-width="2.0" />
<line x1="150.0" y1="234.0" x2="234.0" y2="234.0" stroke="#000000" stroke-width="2.0" />
<line x1="234.0" y1="234.0" x2="318.0" y2="234.0" stroke="#000000" stroke-width="2.0" />
<g>
    <line x1="66.0" y1="290.0" x2="62.5" y2="279.5" stroke="#000000" stroke-width="2.0" />
    <line x1="66.0" y1="290.0" x2="69.5" y2="279.5" stroke="#000000" stroke-width="2.0" />
    <line x1="66.0" y1="234.0" x2="66.0" y2="290.0" stroke="#000000" stroke-width="2.0" />
</g>
<g>
    <line x1="122.0" y1="290.0" x2="118.5" y2="279.5" stroke="#000000" stroke-width="2.0" />
    <line x1="122.0" y1="290.0" x2="125.5" y2="279.5" stroke="#000000" stroke-width="2.0" />
    <line x1="122.0" y1="234.0" x2="122.0" y2="290.0" stroke="#000000" stroke-width="2.0" />
</g>
<line x1="234.0" y1="234.0" x2="234.0" y2="346.0" stroke="#000000" stroke-width="2.0" />
<line x1="38.0" y1="290.0" x2="66.0" y2="290.0" stroke="#000000" stroke-width="2.0" />
<line x1="66.0" y1="290.0" x2="94.0" y2="290.0" stroke="#000000" stroke-width="2.0" />
<line x1="122.0" y1="290.0" x2="206.0" y2="290.0" stroke="#000000" stroke-width="2.0" />
<line x1="38.0" y1="290.0" x2="38.0" y2="318.0" stroke="#000000" stroke-width="2.0" />
<line x1="94.0" y1="290.0" x2="94.0" y2="318.0" stroke="#000000" stroke-width="2.0" />
<line x1="122.0" y1="290.0" x2="122.0" y2="318.0" stroke="#000000" stroke-width="2.0" />
<line x1="206.0" y1="290.0" x2="206.0" y2="318.0" stroke="#000000" stroke-width="2.0" />
<line x1="38.0" y1="318.0" x2="66.0" y2="318.0" stroke="#000000" stroke-width="2.0" />
<line x1="66.0" y1="318.0" x2="94.0" y2="318.0" stroke="#000000" stroke-width="2.0" />
<line x1="122.0" y1="318.0" x2="178.0" y2="318.0" stroke="#000000" stroke-width="2.0" />
<line x1="178.0" y1="318.0" x2="206.0" y2="318.0" stroke="#000000" stroke-width="2.0" />
<line x1="66.0" y1="318.0" x2="66.0" y2="346.0" stroke="#000000" stroke-width="2.0" />
<line x1="178.0" y1="318.0" x2="178.0" y2="346.0" stroke="#000000" stroke-width="2.0" />
<line x1="66.0" y1="346.0" x2="178.0" y2="346.0" stroke="#000000" stroke-width="2.0" />
<line x1="178.0" y1="346.0" x2="234.0" y2="346.0" stroke="#000000" stroke-width="2.0" />
<text x="241.0" y="28.9" font-family="monospace" font-size="14.0" fill="#000000" >
  Reference
</text>
<text x="73.0" y="56.9" font-family="monospace" font-size="14.0" fill="#000000" >
  PET
</text>
<text x="17.0" y="126.9" font-family="monospace" font-size="14.0" fill="#000000" >
  ROI
</text>
<text x="129.0" y="126.9" font-family="monospace" font-size="14.0" fill="#000000" >
  Ref Mask
</text>
<text x="297.0" y="126.9" font-family="monospace" font-size="14.0" fill="#000000" >
  Ref TAC
</text>
<text x="17.0" y="196.9" font-family="monospace" font-size="14.0" fill="#000000" >
  MINC2ECAT
</text>
<text x="45.0" y="308.9" font-family="monospace" font-size="14.0" fill="#000000" >
  ROI
</text>
<text x="129.0" y="308.9" font-family="monospace" font-size="14.0" fill="#000000" >
  Voxel
</text>
</svg>
