<?xml version="1.0" standalone="no"?>
<!DOCTYPE svg PUBLIC "-//W3C//DTD SVG 1.1//EN" "http://www.w3.org/Graphics/SVG/1.1/DTD/svg11.dtd">

<svg width="454.0" height="300.0" viewBox="0 0 454.0 300.0" version="1.1" xmlns="http://www.w3.org/2000/svg" xmlns:xlink="http://www.w3.org/1999/xlink">
<!-- automatically generated by aafigure --><line x1="10.0" y1="10.0" x2="206.0" y2="10.0" stroke="#000000" stroke-width="2.0" />
<line x1="10.0" y1="10.0" x2="10.0" y2="38.0" stroke="#000000" stroke-width="2.0" />
<line x1="206.0" y1="10.0" x2="206.0" y2="38.0" stroke="#000000" stroke-width="2.0" />
<line x1="10.0" y1="38.0" x2="80.0" y2="38.0" stroke="#000000" stroke-width="2.0" />
<line x1="80.0" y1="38.0" x2="206.0" y2="38.0" stroke="#000000" stroke-width="2.0" />
<line x1="80.0" y1="38.0" x2="80.0" y2="80.0" stroke="#000000" stroke-width="2.0" />
<line x1="24.0" y1="80.0" x2="80.0" y2="80.0" stroke="#000000" stroke-width="2.0" />
<line x1="80.0" y1="80.0" x2="178.0" y2="80.0" stroke="#000000" stroke-width="2.0" />
<line x1="24.0" y1="80.0" x2="24.0" y2="108.0" stroke="#000000" stroke-width="2.0" />
<line x1="178.0" y1="80.0" x2="178.0" y2="108.0" stroke="#000000" stroke-width="2.0" />
<line x1="24.0" y1="108.0" x2="178.0" y2="108.0" stroke="#000000" stroke-width="2.0" />
<line x1="52.0" y1="115.0" x2="52.0" y2="164.0" stroke="#000000" stroke-width="2.0" />
<line x1="94.0" y1="115.0" x2="94.0" y2="164.0" stroke="#000000" stroke-width="2.0" />
<line x1="136.0" y1="115.0" x2="136.0" y2="164.0" stroke="#000000" stroke-width="2.0" />
<line x1="24.0" y1="164.0" x2="52.0" y2="164.0" stroke="#000000" stroke-width="2.0" />
<line x1="80.0" y1="164.0" x2="94.0" y2="164.0" stroke="#000000" stroke-width="2.0" />
<line x1="94.0" y1="164.0" x2="108.0" y2="164.0" stroke="#000000" stroke-width="2.0" />
<line x1="136.0" y1="164.0" x2="164.0" y2="164.0" stroke="#000000" stroke-width="2.0" />
<line x1="24.0" y1="164.0" x2="24.0" y2="192.0" stroke="#000000" stroke-width="2.0" />
<line x1="52.0" y1="164.0" x2="52.0" y2="192.0" stroke="#000000" stroke-width="2.0" />
<line x1="80.0" y1="164.0" x2="80.0" y2="192.0" stroke="#000000" stroke-width="2.0" />
<line x1="108.0" y1="164.0" x2="108.0" y2="192.0" stroke="#000000" stroke-width="2.0" />
<line x1="136.0" y1="164.0" x2="136.0" y2="192.0" stroke="#000000" stroke-width="2.0" />
<line x1="164.0" y1="164.0" x2="164.0" y2="192.0" stroke="#000000" stroke-width="2.0" />
<line x1="24.0" y1="192.0" x2="52.0" y2="192.0" stroke="#000000" stroke-width="2.0" />
<line x1="80.0" y1="192.0" x2="108.0" y2="192.0" stroke="#000000" stroke-width="2.0" />
<line x1="136.0" y1="192.0" x2="164.0" y2="192.0" stroke="#000000" stroke-width="2.0" />
<line x1="24.0" y1="192.0" x2="24.0" y2="220.0" stroke="#000000" stroke-width="2.0" />
<line x1="80.0" y1="192.0" x2="80.0" y2="220.0" stroke="#000000" stroke-width="2.0" />
<line x1="136.0" y1="192.0" x2="136.0" y2="220.0" stroke="#000000" stroke-width="2.0" />
<line x1="24.0" y1="220.0" x2="52.0" y2="220.0" stroke="#000000" stroke-width="2.0" />
<line x1="80.0" y1="220.0" x2="94.0" y2="220.0" stroke="#000000" stroke-width="2.0" />
<line x1="94.0" y1="220.0" x2="108.0" y2="220.0" stroke="#000000" stroke-width="2.0" />
<line x1="136.0" y1="220.0" x2="164.0" y2="220.0" stroke="#000000" stroke-width="2.0" />
<line x1="24.0" y1="220.0" x2="24.0" y2="248.0" stroke="#000000" stroke-width="2.0" />
<line x1="52.0" y1="220.0" x2="52.0" y2="248.0" stroke="#000000" stroke-width="2.0" />
<line x1="80.0" y1="220.0" x2="80.0" y2="248.0" stroke="#000000" stroke-width="2.0" />
<line x1="108.0" y1="220.0" x2="108.0" y2="248.0" stroke="#000000" stroke-width="2.0" />
<line x1="136.0" y1="220.0" x2="136.0" y2="248.0" stroke="#000000" stroke-width="2.0" />
<line x1="164.0" y1="220.0" x2="164.0" y2="248.0" stroke="#000000" stroke-width="2.0" />
<line x1="185.0" y1="234.0" x2="199.0" y2="234.0" stroke="#000000" stroke-width="4.0" />
<line x1="24.0" y1="248.0" x2="52.0" y2="248.0" stroke="#000000" stroke-width="2.0" />
<line x1="80.0" y1="248.0" x2="108.0" y2="248.0" stroke="#000000" stroke-width="2.0" />
<line x1="136.0" y1="248.0" x2="164.0" y2="248.0" stroke="#000000" stroke-width="2.0" />
<line x1="24.0" y1="248.0" x2="24.0" y2="276.0" stroke="#000000" stroke-width="2.0" />
<line x1="80.0" y1="248.0" x2="80.0" y2="276.0" stroke="#000000" stroke-width="2.0" />
<line x1="136.0" y1="248.0" x2="136.0" y2="276.0" stroke="#000000" stroke-width="2.0" />
<line x1="24.0" y1="276.0" x2="52.0" y2="276.0" stroke="#000000" stroke-width="2.0" />
<line x1="80.0" y1="276.0" x2="94.0" y2="276.0" stroke="#000000" stroke-width="2.0" />
<line x1="94.0" y1="276.0" x2="108.0" y2="276.0" stroke="#000000" stroke-width="2.0" />
<line x1="136.0" y1="276.0" x2="164.0" y2="276.0" stroke="#000000" stroke-width="2.0" />
<line x1="24.0" y1="276.0" x2="24.0" y2="297.0" stroke="#000000" stroke-width="2.0" />
<line x1="52.0" y1="276.0" x2="52.0" y2="297.0" stroke="#000000" stroke-width="2.0" />
<line x1="80.0" y1="276.0" x2="80.0" y2="297.0" stroke="#000000" stroke-width="2.0" />
<line x1="108.0" y1="276.0" x2="108.0" y2="297.0" stroke="#000000" stroke-width="2.0" />
<line x1="136.0" y1="276.0" x2="136.0" y2="297.0" stroke="#000000" stroke-width="2.0" />
<line x1="164.0" y1="276.0" x2="164.0" y2="297.0" stroke="#000000" stroke-width="2.0" />
<line x1="185.0" y1="290.0" x2="199.0" y2="290.0" stroke="#000000" stroke-width="4.0" />
<text x="17.0" y="28.9" font-family="monospace" font-size="14.0" fill="#000000" >
  Preinfosource
</text>
<text x="31.0" y="98.9" font-family="monospace" font-size="14.0" fill="#000000" >
  Infosource
</text>
<text x="31.0" y="182.9" font-family="monospace" font-size="14.0" fill="#000000" >
  D
</text>
<text x="87.0" y="182.9" font-family="monospace" font-size="14.0" fill="#000000" >
  D
</text>
<text x="143.0" y="182.9" font-family="monospace" font-size="14.0" fill="#000000" >
  D
</text>
<text x="31.0" y="238.9" font-family="monospace" font-size="14.0" fill="#000000" >
  C
</text>
<text x="87.0" y="238.9" font-family="monospace" font-size="14.0" fill="#000000" >
  C
</text>
<text x="143.0" y="238.9" font-family="monospace" font-size="14.0" fill="#000000" >
  C
</text>
<text x="213.0" y="238.9" font-family="monospace" font-size="14.0" fill="#000000" >
  Coregistration
</text>
<text x="31.0" y="294.9" font-family="monospace" font-size="14.0" fill="#000000" >
  P
</text>
<text x="87.0" y="294.9" font-family="monospace" font-size="14.0" fill="#000000" >
  P
</text>
<text x="143.0" y="294.9" font-family="monospace" font-size="14.0" fill="#000000" >
  P
</text>
<text x="213.0" y="294.9" font-family="monospace" font-size="14.0" fill="#000000" >
  Partial volume Co
</text>
</svg>
